<?xml version="1.0" standalone="no"?>
<!DOCTYPE svg PUBLIC "-//W3C//DTD SVG 20010904//EN"
 "http://www.w3.org/TR/2001/REC-SVG-20010904/DTD/svg10.dtd">
<svg version="1.0" xmlns="http://www.w3.org/2000/svg"
 width="140.000000pt" height="140.000000pt" viewBox="0 0 140.000000 140.000000"
 preserveAspectRatio="xMidYMid meet">

<g transform="translate(0.000000,140.000000) scale(0.100000,-0.100000)"
fill="#000000" stroke="none">
<path d="M529 1196 c-118 -42 -221 -128 -278 -236 -33 -62 -39 -90 -18 -90 6
0 22 -3 33 -6 19 -5 27 4 55 56 57 107 185 202 294 217 45 6 45 6 45 44 0 37
-1 39 -32 39 -18 0 -63 -11 -99 -24z"/>
<path d="M740 1181 c0 -38 0 -38 45 -44 109 -15 237 -110 294 -217 28 -52 36
-61 55 -56 11 3 27 6 34 6 20 0 14 28 -19 90 -36 68 -95 133 -164 180 -55 38
-165 79 -212 80 -32 0 -33 -2 -33 -39z"/>
<path d="M583 1049 c-47 -15 -77 -33 -121 -74 -223 -206 -118 -560 181 -616
112 -20 227 19 314 107 69 71 97 142 97 249 0 108 -33 184 -116 260 -97 90
-223 116 -355 74z"/>
<path d="M189 758 c-4 -178 32 -282 137 -398 56 -62 70 -67 93 -30 l19 31 -49
50 c-26 27 -63 80 -81 117 -27 57 -33 81 -36 160 -4 88 -6 94 -29 103 -45 17
-53 12 -54 -33z"/>
<path d="M1154 793 c-20 -4 -22 -12 -26 -101 -3 -84 -8 -106 -37 -165 -18 -37
-53 -88 -81 -116 l-48 -48 19 -32 c23 -38 36 -34 92 28 95 106 136 210 137
349 0 99 2 96 -56 85z"/>
<path d="M630 235 l-64 -65 134 0 134 0 -64 65 c-35 36 -67 65 -70 65 -3 0
-35 -29 -70 -65z"/>
</g>
</svg>
