<?xml version="1.0" encoding="UTF-8"?>
<svg width="764px" height="482px" viewBox="0 0 764 482" version="1.1" xmlns="http://www.w3.org/2000/svg" xmlns:xlink="http://www.w3.org/1999/xlink">
    <title>icon_choice</title>
    <g id="Page-1" stroke="none" stroke-width="1" fill="none" fill-rule="evenodd">
        <g id="icon_choice" transform="translate(0.500000, 0.800000)" fill="#000000" fill-rule="nonzero">
            <path d="M356.1,123.8 C356.1,122.8 356.5,122 357.1,121.2 C357.8,120.5 358.7,120.1 359.9,120.1 L376.8,120.1 C379.1,120.1 380.3,121.3 380.5,123.7 L380.5,220.7 L429,220.7 C430,220.7 430.9,221 431.6,221.7 C432.3,222.4 432.7,223.3 432.7,224.5 L432.7,239.7 C432.7,242 431.5,243.2 429.1,243.3 L359.9,243.3 C357.5,243.3 356.2,242.1 356.2,239.7 L356.2,123.8 L356.1,123.8 Z" id="Path"></path>
            <path d="M443.4,123.7 C443.4,121.5 444.5,120.5 446.6,120.5 L527.6,120.5 C529.9,120.5 531,121.6 531,123.7 L531,139.8 C531,142 529.9,143.1 527.6,143.1 L467.5,143.1 L467.5,168.2 L513.3,168.2 C514.4,168.2 515.3,168.5 516,169 C516.7,169.5 517,170.4 517,171.5 L517,187.3 C517,188.4 516.7,189.2 516,189.7 C515.3,190.2 514.4,190.5 513.3,190.5 L467.5,190.5 L467.5,220.9 L529.1,220.9 C530.2,220.9 531.1,221.2 531.7,221.8 C532.3,222.4 532.6,223.2 532.6,224.3 L532.6,240.2 C532.6,241.3 532.3,242.1 531.7,242.7 C531.1,243.3 530.2,243.5 529.1,243.5 L446.5,243.5 C444.3,243.5 443.3,242.4 443.3,240.2 L443.3,123.7 L443.4,123.7 Z" id="Path"></path>
            <path d="M585.8,123.5 C586.7,121.4 588.1,120.4 589.9,120.4 L603.7,120.4 C604.6,120.4 605.5,120.6 606.2,121.1 C606.9,121.6 607.5,122.4 608,123.5 L654.8,240 C655.3,241.1 655.3,242 654.8,242.6 C654.4,243.2 653.6,243.6 652.5,243.6 L634.3,243.6 C633.4,243.6 632.5,243.4 631.9,242.9 C631.2,242.5 630.7,241.7 630.3,240.6 L622.2,220.7 L571.4,220.7 L563.5,240.5 C563.1,241.6 562.5,242.4 561.8,242.8 C561.1,243.3 560.3,243.5 559.4,243.5 L541.2,243.5 C540.1,243.5 539.3,243.2 538.9,242.6 C538.5,242 538.5,241.1 539,239.9 L585.8,123.5 Z M579.2,199.2 L614.4,199.2 L597,152.2 L579.2,199.2 Z" id="Shape"></path>
            <path d="M665.8,123.7 C665.8,122.8 666.1,122.1 666.6,121.4 C667.1,120.8 667.9,120.4 669,120.4 L721.7,120.4 C727.4,120.4 732.6,121.5 737.4,123.7 C742.2,126 746.3,129 749.7,132.7 C753.2,136.5 755.9,140.8 757.8,145.6 C759.7,150.5 760.7,155.5 760.7,160.7 C760.7,164.2 760.2,167.6 759.2,170.9 C758.2,174.2 756.7,177.4 754.9,180.4 C753,183.4 750.8,186.1 748.3,188.6 C745.7,191.1 742.9,193.2 739.8,195.1 L762.4,239.9 C762.8,240.7 762.8,241.5 762.4,242.3 C762,243.1 761.3,243.5 760.2,243.5 L738.8,243.5 C737.9,243.5 737.1,243.3 736.6,242.9 C736,242.5 735.5,241.7 734.9,240.6 L715.2,200.9 L690,200.9 L690,240.2 C690,242.4 688.9,243.5 686.8,243.5 L669,243.5 C666.8,243.5 665.8,242.4 665.8,240.2 L665.8,123.7 L665.8,123.7 Z M690,141.8 L690,178.9 L715.9,178.9 C718.8,178.9 721.4,178.4 723.9,177.5 C726.4,176.6 728.5,175.3 730.3,173.6 C732.1,172 733.5,170 734.5,167.7 C735.5,165.5 736,163 736,160.3 C736,157.6 735.5,155.2 734.5,152.9 C733.5,150.6 732.1,148.7 730.3,147 C728.5,145.3 726.4,144 723.9,143.1 C721.4,142.2 718.8,141.7 715.9,141.7 L690,141.7 L690,141.8 Z" id="Shape"></path>
            <path d="M419,317.3 L375.3,317.3 L375.3,356.7 C375.3,357.6 375.1,358.2 374.6,358.7 C374.2,359.2 373.5,359.4 372.4,359.4 L358.6,359.4 C356.9,359.4 356,358.5 356,356.7 L356,264.6 C356,263.9 356.2,263.2 356.6,262.7 C357,262.2 357.7,261.9 358.5,261.9 L372.7,261.9 C373.2,261.9 373.8,262.1 374.3,262.4 C374.9,262.7 375.1,263.4 375.1,264.4 L375.1,298.7 L418.8,298.7 L418.8,264.5 C418.8,263.8 419,263.1 419.4,262.6 C419.8,262.1 420.4,261.8 421.3,261.8 L435.5,261.8 C436.1,261.8 436.6,262 437.1,262.3 C437.6,262.6 437.9,263.3 437.9,264.3 L437.9,356.5 C437.9,357.4 437.7,358 437.3,358.5 C436.9,359 436.2,359.2 435.2,359.2 L421.5,359.2 C419.8,359.2 419,358.3 419,356.5 L419,317.3 Z" id="Path"></path>
            <path d="M549.6,310.6 C549.6,315.2 549,319.7 547.8,324 C546.6,328.3 544.9,332.2 542.8,336 C540.6,339.7 538,343.1 535,346.1 C531.9,349.1 528.5,351.8 524.8,353.9 C521.1,356.1 517.1,357.8 512.8,359 C508.5,360.2 504.1,360.8 499.5,360.8 C494.8,360.8 490.4,360.2 486.1,359 C481.8,357.8 477.8,356.1 474.1,353.9 C470.4,351.7 467,349.1 464,346.1 C461,343.1 458.4,339.7 456.2,336 C454,332.3 452.4,328.3 451.2,324 C450,319.7 449.4,315.3 449.4,310.7 C449.4,306.1 450,301.6 451.2,297.3 C452.4,293 454.1,289 456.2,285.3 C458.4,281.6 461,278.2 464,275.1 C467,272.1 470.4,269.4 474.1,267.3 C477.8,265.1 481.8,263.5 486,262.3 C490.3,261.1 494.7,260.5 499.4,260.5 C504,260.5 508.4,261.1 512.7,262.3 C517,263.5 521,265.1 524.7,267.3 C528.4,269.5 531.8,272.1 534.9,275.1 C538,278.2 540.6,281.5 542.7,285.3 C544.9,289 546.6,293 547.8,297.3 C549,301.6 549.6,306 549.6,310.6 M530.4,310.6 C530.4,306.2 529.6,302 528,298.2 C526.4,294.4 524.3,291 521.5,288.1 C518.7,285.2 515.5,283 511.7,281.3 C507.9,279.7 503.8,278.8 499.4,278.8 C495,278.8 490.9,279.6 487.1,281.3 C483.4,282.9 480.1,285.2 477.4,288.1 C474.7,291 472.5,294.3 471,298.2 C469.5,302.1 468.7,306.2 468.7,310.6 C468.7,315 469.5,319.2 471,323 C472.5,326.8 474.7,330.2 477.4,333.1 C480.1,336 483.4,338.2 487.2,339.9 C491,341.5 495.1,342.4 499.5,342.4 C503.9,342.4 508,341.6 511.8,339.9 C515.6,338.3 518.8,336 521.6,333.1 C524.4,330.2 526.5,326.9 528.1,323 C529.6,319.2 530.4,315.1 530.4,310.6" id="Shape"></path>
            <path d="M563,264.7 C563,262.9 563.9,262 565.6,262 L579.8,262 C581.5,262 582.4,262.9 582.4,264.7 L582.4,356.8 C582.4,358.6 581.5,359.5 579.8,359.5 L565.6,359.5 C563.9,359.5 563,358.6 563,356.8 L563,264.7 Z" id="Path"></path>
            <path d="M664.3,336.7 C665.1,336.1 665.8,335.7 666.5,335.7 C667.2,335.6 667.8,335.9 668.4,336.7 L675,347.9 C675.6,348.6 675.9,349.3 675.7,349.9 C675.6,350.5 675.1,351.1 674.3,351.7 C670.5,354.5 666.3,356.7 661.7,358.4 C657.1,360 651.8,360.9 645.8,360.9 C641.2,360.9 636.7,360.3 632.4,359.1 C628.1,357.9 624.1,356.2 620.4,354 C616.7,351.8 613.2,349.2 610.2,346.2 C607.1,343.1 604.5,339.7 602.3,336 C600.1,332.3 598.4,328.3 597.2,324 C596,319.7 595.4,315.2 595.4,310.6 C595.4,306 596,301.5 597.2,297.2 C598.4,292.9 600.1,288.9 602.3,285.2 C604.5,281.5 607.1,278.1 610.2,275.1 C613.3,272.1 616.7,269.5 620.4,267.3 C624.1,265.1 628.2,263.5 632.4,262.3 C636.7,261.1 641.1,260.5 645.8,260.5 C651.8,260.5 657.1,261.3 661.7,262.9 C666.4,264.5 670.6,266.7 674.4,269.5 C675.1,270.1 675.5,270.7 675.5,271.3 C675.5,271.9 675.4,272.4 675.2,272.8 L668.3,284.5 C667.9,285 667.4,285.3 666.8,285.3 C666.2,285.3 665.4,285.1 664.6,284.6 C663.1,283.6 661.6,282.8 660.1,282 C658.6,281.3 657.1,280.6 655.6,280.1 C654.1,279.6 652.5,279.2 650.9,278.9 C649.3,278.6 647.6,278.5 645.8,278.5 C641.4,278.5 637.3,279.3 633.5,281 C629.7,282.6 626.4,284.9 623.7,287.8 C620.9,290.7 618.8,294 617.2,297.9 C615.6,301.7 614.8,305.9 614.8,310.4 C614.8,314.8 615.6,319 617.2,322.9 C618.8,326.8 620.9,330.2 623.7,333.2 C626.5,336.1 629.7,338.5 633.5,340.2 C637.3,341.9 641.4,342.8 645.8,342.8 C649.4,342.8 652.8,342.2 655.9,341 C659.2,339.9 662,338.5 664.3,336.7" id="Path"></path>
            <path d="M689.6,264.5 C689.6,262.8 690.5,261.9 692.2,261.9 L756.3,261.9 C758.1,261.9 759,262.7 759,264.5 L759,277.2 C759,279 758.1,279.8 756.3,279.8 L708.8,279.8 L708.8,299.7 L745,299.7 C745.9,299.7 746.6,299.9 747.1,300.3 C747.7,300.7 747.9,301.4 747.9,302.3 L747.9,314.8 C747.9,315.7 747.6,316.3 747.1,316.7 C746.6,317.1 745.8,317.3 744.9,317.3 L708.6,317.3 L708.6,341.4 L757.4,341.4 C758.3,341.4 759,341.6 759.4,342.1 C759.9,342.5 760.1,343.2 760.1,344.1 L760.1,356.7 C760.1,357.6 759.9,358.2 759.4,358.7 C758.9,359.1 758.2,359.4 757.4,359.4 L692,359.4 C690.3,359.4 689.4,358.5 689.4,356.8 L689.6,264.5 Z" id="Path"></path>
            <path d="M419,379.3 C419,378.9 419.1,378.7 419.3,378.5 C419.5,378.3 419.8,378.2 420.1,378.2 L436.2,378.2 C438.1,378.2 439.8,378.6 441.3,379.3 C442.9,380 444.2,381 445.3,382.2 C446.4,383.4 447.3,384.8 448,386.4 C448.6,388 449,389.6 449,391.4 C449,393.1 448.7,394.7 448,396.3 C447.3,397.9 446.4,399.3 445.3,400.5 C444.2,401.7 442.8,402.7 441.2,403.4 C439.6,404.1 437.9,404.5 436,404.5 L427,404.5 L427,418.2 C427,418.9 426.6,419.3 425.9,419.3 L420,419.3 C419.3,419.3 418.9,418.9 418.9,418.2 L418.9,379.3 L419,379.3 Z M427,385.3 L427,397.6 L434.5,397.6 C435.4,397.6 436.3,397.4 437,397.1 C437.8,396.8 438.4,396.3 439,395.8 C439.5,395.3 440,394.6 440.3,393.9 C440.6,393.2 440.8,392.4 440.8,391.5 C440.8,390.6 440.6,389.9 440.3,389.1 C440,388.4 439.6,387.7 439,387.1 C438.4,386.5 437.8,386.1 437,385.8 C436.3,385.5 435.4,385.3 434.5,385.3 L427,385.3 L427,385.3 Z" id="Shape"></path>
            <path d="M462.8,379.2 C463.1,378.5 463.6,378.2 464.2,378.2 L468.8,378.2 C469.1,378.2 469.4,378.3 469.6,378.4 C469.8,378.6 470,378.8 470.2,379.2 L485.8,418.1 C485.9,418.5 485.9,418.8 485.8,419 C485.7,419.2 485.4,419.3 485,419.3 L478.9,419.3 C478.6,419.3 478.3,419.2 478.1,419.1 C477.9,419 477.7,418.7 477.6,418.3 L474.9,411.6 L457.9,411.6 L455.3,418.2 C455.2,418.6 455,418.8 454.7,419 C454.5,419.2 454.2,419.2 453.9,419.2 L447.8,419.2 C447.4,419.2 447.2,419.1 447,418.9 C446.9,418.7 446.9,418.4 447,418 L462.8,379.2 Z M460.6,404.6 L472.3,404.6 L466.5,388.9 L460.6,404.6 Z" id="Shape"></path>
            <path d="M518.8,409.8 C519.1,409.5 519.4,409.4 519.7,409.3 C520,409.3 520.3,409.4 520.5,409.7 L523.3,414.4 C523.6,414.7 523.6,415 523.6,415.3 C523.5,415.5 523.3,415.8 523,416 C521.4,417.2 519.6,418.1 517.7,418.8 C515.8,419.5 513.5,419.8 511,419.8 C509,419.8 507.2,419.5 505.3,419 C503.5,418.5 501.8,417.8 500.2,416.9 C498.6,416 497.2,414.9 495.9,413.6 C494.6,412.3 493.5,410.9 492.6,409.3 C491.7,407.7 491,406 490.4,404.2 C489.9,402.4 489.6,400.5 489.6,398.5 C489.6,396.5 489.9,394.7 490.4,392.8 C490.9,391 491.6,389.3 492.6,387.7 C493.5,386.1 494.6,384.7 495.9,383.4 C497.2,382.1 498.6,381 500.2,380.1 C501.8,379.2 503.5,378.5 505.3,378 C507.1,377.5 509,377.3 511,377.3 C513.5,377.3 515.8,377.6 517.7,378.3 C519.7,379 521.5,379.9 523.1,381.1 C523.4,381.3 523.6,381.6 523.6,381.8 C523.6,382.1 523.6,382.3 523.5,382.4 L520.6,387.4 C520.5,387.6 520.3,387.7 520,387.7 C519.7,387.7 519.4,387.6 519.1,387.4 C518.5,387 517.8,386.6 517.2,386.3 C516.6,386 515.9,385.7 515.3,385.5 C514.7,385.3 514,385.1 513.3,385 C512.6,384.9 511.9,384.8 511.1,384.8 C509.2,384.8 507.5,385.1 505.9,385.8 C504.3,386.5 502.9,387.4 501.8,388.7 C500.6,389.9 499.7,391.3 499.1,393 C498.4,394.6 498.1,396.4 498.1,398.3 C498.1,400.2 498.4,401.9 499.1,403.6 C499.8,405.2 500.7,406.7 501.8,407.9 C503,409.1 504.4,410.1 505.9,410.8 C507.5,411.5 509.2,411.9 511.1,411.9 C512.6,411.9 514,411.7 515.4,411.2 C516.6,411.1 517.8,410.5 518.8,409.8" id="Path"></path>
            <path d="M552.1,395.7 L569.2,418.1 C569.5,418.4 569.5,418.7 569.4,419 C569.3,419.2 569.1,419.4 568.7,419.4 L560.6,419.4 C560.3,419.4 560,419.3 559.8,419.1 C559.6,418.9 559.3,418.7 559.1,418.4 L546.6,401.9 L541.6,407.3 L541.6,418.3 C541.6,419.1 541.3,419.4 540.6,419.4 L534.6,419.4 C533.9,419.4 533.5,419 533.5,418.3 L533.5,379.4 C533.5,379.1 533.6,378.8 533.8,378.6 C534,378.4 534.3,378.3 534.6,378.3 L540.5,378.3 C540.7,378.3 540.9,378.4 541.2,378.6 C541.5,378.8 541.6,379.1 541.6,379.5 L541.6,396.6 L557,379.1 C557.3,378.7 557.6,378.5 557.9,378.4 C558.2,378.3 558.4,378.3 558.8,378.3 L566,378.3 C566.4,378.3 566.6,378.4 566.7,378.7 C566.8,379 566.7,379.3 566.5,379.5 L552.1,395.7 Z" id="Path"></path>
            <path d="M589,379.2 C589.3,378.5 589.8,378.2 590.4,378.2 L595,378.2 C595.3,378.2 595.6,378.3 595.8,378.4 C596,378.6 596.2,378.8 596.4,379.2 L612,418.1 C612.1,418.5 612.1,418.8 612,419 C611.9,419.2 611.6,419.3 611.2,419.3 L605.1,419.3 C604.8,419.3 604.5,419.2 604.3,419.1 C604.1,419 603.9,418.7 603.8,418.3 L601.1,411.6 L584.1,411.6 L581.5,418.2 C581.4,418.6 581.2,418.8 580.9,419 C580.7,419.2 580.4,419.2 580.1,419.2 L574,419.2 C573.6,419.2 573.4,419.1 573.2,418.9 C573.1,418.7 573.1,418.4 573.2,418 L589,379.2 Z M586.8,404.6 L598.5,404.6 L592.7,388.9 L586.8,404.6 Z" id="Shape"></path>
            <path d="M637.2,412.4 C638.3,412.4 639.4,412.2 640.5,411.9 C641.6,411.6 642.7,411.1 643.5,410.5 L643.5,402 C643.5,401.3 643.9,400.9 644.6,400.9 L649.5,400.9 C649.8,400.9 650,401 650.2,401.1 C650.4,401.3 650.5,401.6 650.5,402 L650.5,414.6 C650.5,415.1 650.3,415.5 649.9,415.8 C649.1,416.4 648.2,416.9 647.2,417.4 C646.2,417.9 645.2,418.3 644.1,418.7 C643,419.1 641.9,419.4 640.7,419.6 C639.5,419.8 638.3,419.9 637.1,419.9 C635.1,419.9 633.3,419.6 631.4,419.1 C629.6,418.6 627.9,417.9 626.3,417 C624.7,416.1 623.3,415 622,413.7 C620.7,412.4 619.6,411 618.7,409.4 C617.8,407.8 617.1,406.1 616.5,404.3 C616,402.5 615.7,400.6 615.7,398.6 C615.7,396.6 615.9,394.8 616.4,393 C616.9,391.2 617.6,389.5 618.5,388 C619.4,386.4 620.5,385 621.8,383.7 C623.1,382.4 624.5,381.3 626.1,380.4 C627.7,379.5 629.4,378.8 631.2,378.3 C633,377.8 634.9,377.6 636.9,377.6 C639.4,377.6 641.6,377.9 643.7,378.7 C645.7,379.4 647.6,380.4 649.3,381.8 C649.6,382 649.8,382.3 649.8,382.5 C649.8,382.8 649.7,383 649.6,383.2 L646.3,387.9 C646.1,388.1 645.9,388.2 645.6,388.3 C645.3,388.4 645,388.3 644.7,388 C643.6,387.2 642.4,386.5 641.1,386 C639.8,385.5 638.4,385.3 636.9,385.3 C635,385.3 633.2,385.6 631.6,386.3 C630,387 628.5,387.9 627.3,389.1 C626.1,390.3 625.2,391.7 624.5,393.4 C623.8,395 623.5,396.8 623.5,398.6 C623.5,400.5 623.8,402.3 624.5,403.9 C625.2,405.6 626.1,407 627.4,408.3 C628.6,409.6 630,410.6 631.7,411.3 C633.5,412.1 635.3,412.5 637.2,412.4" id="Path"></path>
            <path d="M661,379.3 C661,378.5 661.4,378.2 662.1,378.2 L668.1,378.2 C668.8,378.2 669.2,378.6 669.2,379.3 L669.2,418.2 C669.2,418.9 668.8,419.3 668.1,419.3 L662.1,419.3 C661.4,419.3 661,418.9 661,418.2 L661,379.3 Z" id="Path"></path>
            <path d="M680.9,379.4 C680.9,379.1 681,378.8 681.2,378.5 C681.4,378.3 681.7,378.1 682.1,378.1 L688.6,378.1 C688.9,378.1 689.2,378.2 689.5,378.3 C689.8,378.4 690.1,378.6 690.2,378.9 L708.4,405.1 L708.4,378.9 C708.5,378.6 708.7,378.3 709,378.2 C709.2,378.1 709.5,378 709.7,378 L715.3,378 C715.6,378 715.9,378.1 716.2,378.3 C716.5,378.5 716.7,378.8 716.7,379.2 L716.7,417.9 C716.7,418.7 716.2,419.1 715.3,419.1 L709.8,419.1 C709.3,419.1 709,419 708.8,418.8 C708.6,418.6 708.4,418.4 708.2,418.1 L688.9,390.4 L688.9,417.8 C688.9,418.6 688.5,419 687.7,419 L682.1,419 C681.3,419 680.9,418.6 680.9,417.8 L680.9,379.4 Z" id="Path"></path>
            <path d="M746.9,412.4 C748,412.4 749.1,412.2 750.2,411.9 C751.3,411.6 752.4,411.1 753.2,410.5 L753.2,402 C753.2,401.3 753.6,400.9 754.3,400.9 L759.2,400.9 C759.5,400.9 759.7,401 759.9,401.1 C760.1,401.3 760.2,401.6 760.2,402 L760.2,414.6 C760.2,415.1 760,415.5 759.6,415.8 C758.8,416.4 757.9,416.9 756.9,417.4 C755.9,417.9 754.9,418.3 753.8,418.7 C752.7,419.1 751.6,419.4 750.4,419.6 C749.2,419.8 748,419.9 746.8,419.9 C744.8,419.9 743,419.6 741.1,419.1 C739.3,418.6 737.6,417.9 736,417 C734.4,416.1 733,415 731.7,413.7 C730.4,412.4 729.3,411 728.4,409.4 C727.5,407.8 726.8,406.1 726.2,404.3 C725.7,402.5 725.4,400.6 725.4,398.6 C725.4,396.6 725.6,394.8 726.1,393 C726.6,391.2 727.3,389.5 728.2,388 C729.1,386.4 730.2,385 731.5,383.7 C732.8,382.4 734.2,381.3 735.8,380.4 C737.4,379.5 739.1,378.8 740.9,378.3 C742.7,377.8 744.6,377.6 746.6,377.6 C749.1,377.6 751.3,377.9 753.4,378.7 C755.4,379.4 757.3,380.4 759,381.8 C759.3,382 759.5,382.3 759.5,382.5 C759.5,382.8 759.4,383 759.3,383.2 L756,387.9 C755.8,388.1 755.6,388.2 755.3,388.3 C755,388.4 754.7,388.3 754.4,388 C753.3,387.2 752.1,386.5 750.8,386 C749.5,385.5 748.1,385.3 746.6,385.3 C744.7,385.3 742.9,385.6 741.3,386.3 C739.7,387 738.2,387.9 737,389.1 C735.8,390.3 734.9,391.7 734.2,393.4 C733.5,395 733.2,396.8 733.2,398.6 C733.2,400.5 733.5,402.3 734.2,403.9 C734.9,405.6 735.8,407 737.1,408.3 C738.3,409.6 739.7,410.6 741.4,411.3 C743.2,412.1 745,412.5 746.9,412.4" id="Path"></path>
            <path d="M307.2,342.3 C311.6,339.2 315.7,337.3 319.5,336.8 C323.3,336.3 326.6,338.1 329.5,342.3 L381,418 C384.4,422.2 385.7,425.8 384.9,428.8 C384.2,431.8 381.4,434.9 376.6,438.1 C368.2,444 359.2,449.5 349.4,454.8 C339.7,460 329.1,464.6 317.8,468.5 C306.5,472.4 294.5,475.4 281.8,477.6 C269.1,479.8 255.7,480.9 241.4,480.9 C219.2,480.9 197.8,478 177.3,472.3 C156.8,466.5 137.5,458.4 119.6,447.9 C101.7,437.4 85.4,424.9 70.7,410.2 C56,395.5 43.5,379.2 33,361.3 C22.5,343.4 14.4,324.2 8.6,303.6 C2.9,283.1 0,261.7 0,239.5 C0,217.3 2.9,196 8.6,175.5 C14.4,155.1 22.5,136 33,118.1 C43.5,100.3 56,84.2 70.7,69.7 C85.4,55.2 101.7,42.8 119.6,32.5 C137.5,22.1 156.7,14.1 177.3,8.5 C197.8,2.9 219.2,0 241.4,0 C255.6,0 269.2,1.2 282,3.5 C294.8,5.8 306.8,8.9 318.1,12.8 C329.4,16.7 340,21.3 350,26.6 C359.9,31.9 369.2,37.6 377.8,43.7 C381.2,46 383.1,48.8 383.6,52 C384.1,55.3 383.7,58 382.2,60.3 L327.5,138.6 C325.2,142 322.2,143.5 318.5,143.3 C314.8,143.1 311.3,141.6 308,138.9 C297.7,130.7 287.4,124.8 276.9,121 C266.4,117.2 254.6,115.3 241.4,115.3 C224,115.3 207.9,118.5 193,124.9 C178.1,131.3 165.2,140.1 154.3,151.3 C143.4,162.5 134.9,175.7 128.8,190.7 C122.7,205.8 119.7,222 119.7,239.4 C119.7,256.8 122.7,273.1 128.8,288.4 C134.9,303.7 143.4,317 154.3,328.3 C165.2,339.6 178.1,348.5 193,355 C207.9,361.5 224,364.8 241.4,364.8 C254.6,364.8 266.8,362.5 277.8,357.9 C289.1,353.5 298.8,348.2 307.2,342.3" id="Path"></path>
        </g>
    </g>
</svg>