<?xml version="1.0" encoding="UTF-8"?>
<svg xmlns="http://www.w3.org/2000/svg" width="131" height="24" viewBox="0 0 131 24" fill="none">
  <path d="M36.3417 5.56836V7.97462H30.5712V10.9071H36.3417V13.3131H30.5712V18.6987H27.2998V5.56836H36.3417Z" fill="#218455"></path>
  <path d="M47.6445 6.41533V8.98141C45.9023 8.19818 44.5144 7.80643 43.4808 7.80616C42.9947 7.78319 42.5108 7.88528 42.0754 8.10267C41.9235 8.17117 41.794 8.28117 41.7018 8.42002C41.6096 8.55887 41.5584 8.72093 41.5542 8.88755C41.5617 9.02661 41.5992 9.16239 41.6641 9.28561C41.7289 9.40883 41.8197 9.51658 41.9301 9.60146C42.1805 9.82695 42.7914 10.1183 43.7628 10.4756C44.5601 10.7581 45.3386 11.0909 46.0938 11.4719C46.6864 11.7873 47.2015 12.2302 47.6021 12.7689C48.0429 13.3837 48.2662 14.128 48.2367 14.8839C48.2554 15.4437 48.1392 15.9998 47.8979 16.5053C47.6565 17.0107 47.2971 17.4507 46.85 17.7881C45.926 18.5086 44.7089 18.8688 43.1988 18.8686C41.5369 18.8601 39.9053 18.4231 38.4616 17.5999V14.7714C39.192 15.2798 39.9732 15.7111 40.7926 16.0584C41.4776 16.3296 42.2083 16.4669 42.945 16.4629C44.2295 16.4629 44.8719 16.059 44.872 15.2511C44.8656 15.1014 44.828 14.9546 44.7616 14.8203C44.6951 14.686 44.6013 14.5671 44.4862 14.4712C44.2287 14.227 43.6098 13.9296 42.6294 13.5791C41.8316 13.3059 41.0529 12.9795 40.2988 12.6019C39.713 12.2902 39.2054 11.8497 38.8142 11.3137C38.3765 10.687 38.1569 9.93375 38.1891 9.16999C38.1772 8.63834 38.2951 8.11181 38.5326 7.63601C38.7701 7.16021 39.1201 6.74949 39.5521 6.43945C40.4608 5.74633 41.6763 5.39998 43.1988 5.40039C44.7347 5.42987 46.248 5.77536 47.6445 6.41535" fill="#218455"></path>
  <path d="M59.0781 6.41533V8.98141C57.3359 8.19818 55.948 7.80643 54.9144 7.80616C54.4283 7.78319 53.9444 7.88528 53.509 8.10267C53.3571 8.17117 53.2276 8.28117 53.1354 8.42002C53.0432 8.55887 52.992 8.72093 52.9879 8.88755C52.9954 9.02661 53.0328 9.16239 53.0977 9.28561C53.1626 9.40883 53.2533 9.51658 53.3637 9.60146C53.6141 9.82695 54.225 10.1183 55.1964 10.4756C55.9937 10.7581 56.7722 11.0909 57.5274 11.4719C58.12 11.7873 58.6351 12.2302 59.0357 12.7689C59.4765 13.3837 59.6998 14.128 59.6703 14.8839C59.689 15.4437 59.5728 15.9998 59.3315 16.5053C59.0902 17.0107 58.7308 17.4507 58.2836 17.7881C57.3596 18.5086 56.1425 18.8688 54.6324 18.8686C52.9705 18.8601 51.3389 18.4231 49.8952 17.5999V14.7714C50.6256 15.2798 51.4068 15.7111 52.2262 16.0584C52.9112 16.3296 53.6419 16.4669 54.3787 16.4629C55.6631 16.4629 56.3055 16.059 56.3056 15.2511C56.2992 15.1014 56.2616 14.9546 56.1952 14.8203C56.1287 14.686 56.0349 14.5671 55.9198 14.4712C55.6623 14.227 55.0434 13.9296 54.063 13.5791C53.2652 13.3059 52.4865 12.9795 51.7324 12.6019C51.1466 12.2902 50.639 11.8497 50.2477 11.3137C49.8101 10.687 49.5905 9.93375 49.6227 9.16999C49.6108 8.63834 49.7287 8.11181 49.9662 7.63601C50.2037 7.16021 50.5537 6.74949 50.9857 6.43945C51.8944 5.74633 53.1099 5.39998 54.6324 5.40039C56.1682 5.42991 57.6816 5.77541 59.0781 6.41535" fill="#218455"></path>
  <path d="M73.839 14.6958V17.5626C72.2539 18.4191 70.4807 18.868 68.679 18.8687C66.3484 18.8687 64.4922 18.225 63.1104 16.9376C62.4474 16.3263 61.9204 15.5825 61.5634 14.7544C61.2064 13.9263 61.0274 13.0325 61.038 12.1308C61.0487 11.2291 61.2487 10.3397 61.6252 9.5203C62.0017 8.70089 62.5461 7.96975 63.2233 7.37429C64.6802 6.05823 66.5833 5.40026 68.9328 5.40039C70.8066 5.40039 72.3919 5.78578 73.6887 6.55656V9.47898C72.0969 8.58361 70.5899 8.13579 69.1678 8.1355C67.7704 8.1355 66.6286 8.50982 65.7425 9.25846C65.3168 9.60215 64.9755 10.0388 64.7448 10.535C64.5141 11.0312 64.4003 11.5736 64.4119 12.1206C64.3998 12.6692 64.5114 13.2134 64.7385 13.713C64.9655 14.2125 65.3021 14.6545 65.7234 15.0061C66.5972 15.764 67.7171 16.143 69.0831 16.1431C69.7441 16.1452 70.4021 16.0552 71.0383 15.8757C72.0018 15.5576 72.9383 15.1631 73.839 14.6958" fill="#218455"></path>
  <path d="M87.3121 16.9894C87.3799 16.9881 87.4472 17.0003 87.5101 17.0253C87.5731 17.0503 87.6304 17.0877 87.6788 17.1351C87.7283 17.1831 87.7673 17.241 87.7932 17.3049C87.8191 17.3688 87.8313 17.4375 87.8291 17.5064V17.8445C87.8296 17.9125 87.8166 17.98 87.7908 18.0429C87.765 18.1059 87.7269 18.163 87.6788 18.2112C87.6307 18.2593 87.5735 18.2973 87.5105 18.3231C87.4476 18.349 87.3801 18.362 87.3121 18.3615H79.4075C79.3396 18.3628 79.2722 18.3497 79.2097 18.323C79.1473 18.2963 79.0913 18.2566 79.0453 18.2066C78.9499 18.1068 78.8977 17.9734 78.9 17.8353C78.9042 17.5505 78.9389 17.2669 79.0034 16.9894C79.065 16.729 79.1564 16.4767 79.2758 16.2373C79.4 16.0228 79.5366 15.8158 79.6849 15.6173C79.8468 15.4009 80.0243 15.1968 80.216 15.0064C80.4166 14.8058 80.6233 14.6178 80.8361 14.4424C81.0491 14.2667 81.2652 14.0976 81.4843 13.9349C81.7036 13.7783 81.9245 13.6216 82.1471 13.4648C82.3693 13.3082 82.5903 13.1579 82.8099 13.0138C83.2672 12.7127 83.6916 12.4042 84.0832 12.0881C84.4753 11.7717 84.8497 11.4441 85.2066 11.1055C85.4898 10.8298 85.7207 10.5051 85.8881 10.147C86.042 9.80694 86.1267 9.43962 86.1373 9.06647C86.1373 8.72803 86.0717 8.39278 85.9441 8.07931C85.8306 7.8025 85.6516 7.55739 85.4225 7.365C84.831 6.94556 84.1171 6.73395 83.3926 6.76326C82.9395 6.7603 82.4895 6.83676 82.0628 6.98918C81.7137 7.11222 81.4037 7.32627 81.165 7.6092C80.6733 8.29451 80.4282 9.12606 80.4694 9.96848C80.4707 10.0355 80.4586 10.102 80.4336 10.1642C80.4086 10.2264 80.3713 10.2829 80.3239 10.3302C80.2766 10.3776 80.2201 10.415 80.158 10.44C80.0958 10.4651 80.0293 10.4773 79.9623 10.476H79.6047C79.5377 10.4772 79.4712 10.465 79.409 10.4399C79.3469 10.4149 79.2904 10.3776 79.243 10.3302C79.1956 10.2828 79.1583 10.2263 79.1333 10.1642C79.1082 10.102 79.096 10.0355 79.0972 9.96848C79.1159 6.96094 80.5477 5.43834 83.3926 5.40068C83.9243 5.39506 84.4537 5.4711 84.9624 5.62617C85.4309 5.77271 85.8722 5.99493 86.2689 6.28401C87.0833 6.92314 87.4968 7.85686 87.5094 9.08515C87.4981 9.61196 87.3815 10.1312 87.1663 10.6122C86.9474 11.1023 86.6472 11.5519 86.2784 11.9419C85.9038 12.3281 85.51 12.6953 85.0986 13.042C84.6743 13.4 84.2269 13.7296 83.7593 14.0288H83.7684C82.9288 14.5837 82.1194 15.183 81.3435 15.8241H81.3531C80.9588 16.1371 80.6407 16.5355 80.4228 16.9894H87.3121Z" fill="#87888A"></path>
  <path d="M97.8248 16.9894C97.8925 16.9881 97.9599 17.0003 98.0228 17.0253C98.0858 17.0503 98.1432 17.0877 98.1915 17.1351C98.241 17.1831 98.28 17.241 98.3059 17.3049C98.3318 17.3688 98.344 17.4375 98.3418 17.5064V17.8445C98.3423 17.9125 98.3293 17.98 98.3035 18.0429C98.2777 18.1059 98.2396 18.163 98.1915 18.2112C98.1434 18.2593 98.0862 18.2973 98.0232 18.3231C97.9603 18.349 97.8928 18.362 97.8248 18.3615H89.9202C89.8523 18.3628 89.7849 18.3497 89.7224 18.323C89.66 18.2963 89.604 18.2566 89.558 18.2066C89.4626 18.1068 89.4104 17.9734 89.4127 17.8353C89.4169 17.5505 89.4516 17.2669 89.5161 16.9894C89.5777 16.729 89.6691 16.4767 89.7885 16.2373C89.9127 16.0228 90.0493 15.8158 90.1976 15.6173C90.3595 15.4009 90.537 15.1968 90.7287 15.0064C90.9293 14.8058 91.136 14.6178 91.3488 14.4424C91.5618 14.2667 91.7779 14.0976 91.997 13.9349C92.2163 13.7783 92.4372 13.6216 92.6598 13.4648C92.882 13.3082 93.103 13.1579 93.3226 13.0138C93.7799 12.7127 94.2043 12.4042 94.5959 12.0881C94.988 11.7717 95.3624 11.4441 95.7193 11.1055C96.0025 10.8298 96.2334 10.5051 96.4008 10.147C96.5547 9.80694 96.6394 9.43962 96.65 9.06647C96.65 8.72803 96.5844 8.39278 96.4568 8.07931C96.3433 7.80251 96.1644 7.55739 95.9352 7.365C95.3437 6.94556 94.6299 6.73395 93.9053 6.76326C93.4523 6.7603 93.0022 6.83676 92.5755 6.98918C92.2264 7.11222 91.9164 7.32627 91.6777 7.6092C91.1862 8.2946 90.9411 9.12609 90.9821 9.96848C90.9835 10.0355 90.9713 10.102 90.9463 10.1642C90.9213 10.2264 90.884 10.2829 90.8366 10.3302C90.7893 10.3776 90.7328 10.415 90.6707 10.44C90.6086 10.4651 90.542 10.4773 90.475 10.476H90.1174C90.0504 10.4772 89.9839 10.465 89.9217 10.4399C89.8596 10.4149 89.8031 10.3776 89.7557 10.3302C89.7084 10.2828 89.671 10.2263 89.646 10.1642C89.6209 10.102 89.6087 10.0355 89.61 9.96848C89.6286 6.96094 91.0604 5.43834 93.9053 5.40068C94.437 5.39506 94.9665 5.4711 95.4751 5.62617C95.9436 5.77271 96.3849 5.99493 96.7816 6.28401C97.596 6.92314 98.0095 7.85686 98.0221 9.08515C98.0108 9.61196 97.8942 10.1312 97.679 10.6122C97.4602 11.1023 97.16 11.5519 96.7912 11.9419C96.4165 12.3281 96.0227 12.6953 95.6113 13.042C95.187 13.4 94.7396 13.7296 94.272 14.0288H94.2811C93.4416 14.5837 92.6321 15.183 91.8563 15.8241H91.8658C91.4715 16.1371 91.1534 16.5355 90.9355 16.9894H97.8248Z" fill="#87888A"></path>
  <path d="M109.222 11.9891C109.232 12.7699 109.15 13.5492 108.977 14.3106C108.815 15.0184 108.559 15.7012 108.216 16.341C107.862 17.0197 107.323 17.5837 106.66 17.9668C105.927 18.3679 105.105 18.5779 104.269 18.5778C103.443 18.5763 102.632 18.3661 101.91 17.9668C101.251 17.5847 100.713 17.0243 100.359 16.3501C100.009 15.7063 99.747 15.0189 99.5784 14.3061C99.3998 13.547 99.3147 12.7689 99.3251 11.9891C99.3146 11.2047 99.3997 10.422 99.5784 9.65811C99.7477 8.94096 100.01 8.24903 100.359 7.59993C100.712 6.92745 101.25 6.36988 101.91 5.99276C102.634 5.59976 103.445 5.39605 104.269 5.40054C105.102 5.39405 105.923 5.59774 106.656 5.99276C107.315 6.3697 107.855 6.92319 108.216 7.59081C108.559 8.24219 108.815 8.93567 108.977 9.65355C109.15 10.4198 109.232 11.2037 109.222 11.9891M107.859 11.9891C107.858 11.6705 107.841 11.3521 107.807 11.0352C107.773 10.7001 107.73 10.3758 107.68 10.0622C107.62 9.76299 107.54 9.46806 107.441 9.17927C107.346 8.90201 107.225 8.63447 107.079 8.38028C106.552 7.33331 105.612 6.7944 104.259 6.76355C103.662 6.75123 103.073 6.90415 102.558 7.20541H102.567C102.345 7.35371 102.14 7.52706 101.956 7.72204C101.769 7.9237 101.608 8.14804 101.477 8.38981C101.331 8.63808 101.211 8.90102 101.12 9.17431C101.023 9.46681 100.95 9.76704 100.904 10.0718C100.628 11.3162 100.628 12.606 100.904 13.8505C100.952 14.1538 101.025 14.4524 101.125 14.7429C101.222 15.0253 101.343 15.2989 101.487 15.5607C101.73 16.0402 102.1 16.4436 102.558 16.7264C102.792 16.89 103.053 17.0109 103.329 17.0835C103.636 17.1615 103.952 17.1994 104.269 17.1961C104.59 17.1995 104.911 17.1616 105.223 17.0835C105.495 17.014 105.752 16.8927 105.979 16.7264C106.209 16.5883 106.42 16.419 106.604 16.2235C106.789 16.023 106.949 15.8004 107.079 15.5607C107.23 15.3019 107.353 15.0277 107.446 14.743C107.541 14.4501 107.619 14.1521 107.68 13.8505C107.73 13.537 107.772 13.2235 107.807 12.9103C107.841 12.6044 107.858 12.2969 107.859 11.9891" fill="#87888A"></path>
  <path d="M119.735 11.9891C119.745 12.7699 119.663 13.5492 119.49 14.3106C119.328 15.0184 119.072 15.7012 118.729 16.341C118.375 17.0197 117.836 17.5837 117.173 17.9668C116.44 18.3679 115.617 18.5779 114.781 18.5778C113.956 18.5763 113.145 18.3661 112.423 17.9668C111.764 17.5847 111.226 17.0243 110.871 16.3501C110.522 15.7063 110.26 15.0189 110.091 14.3061C109.912 13.547 109.827 12.7689 109.838 11.9891C109.827 11.2047 109.912 10.422 110.091 9.65811C110.26 8.94096 110.523 8.24903 110.871 7.59993C111.225 6.92745 111.763 6.36988 112.423 5.99276C113.146 5.59976 113.958 5.39605 114.781 5.40054C115.614 5.39405 116.435 5.59774 117.168 5.99276C117.827 6.3697 118.368 6.92319 118.729 7.59081C119.071 8.24219 119.327 8.93567 119.49 9.65355C119.662 10.4199 119.744 11.2037 119.735 11.9891M118.372 11.9891C118.37 11.6705 118.353 11.3521 118.32 11.0352C118.285 10.7001 118.243 10.3758 118.193 10.0622C118.132 9.76299 118.052 9.46806 117.953 9.17927C117.859 8.90201 117.737 8.63447 117.592 8.38028C117.065 7.33331 116.125 6.7944 114.772 6.76355C114.175 6.75123 113.586 6.90415 113.07 7.20541H113.08C112.857 7.35372 112.652 7.52706 112.469 7.72204C112.282 7.9237 112.121 8.14804 111.99 8.38981C111.844 8.63808 111.724 8.90102 111.633 9.17431C111.535 9.46681 111.463 9.76704 111.417 10.0718C111.141 11.3162 111.141 12.606 111.417 13.8505C111.464 14.1538 111.538 14.4524 111.637 14.7429C111.734 15.0253 111.856 15.2989 111.999 15.5607C112.243 16.0402 112.613 16.4436 113.07 16.7264C113.304 16.89 113.565 17.0109 113.842 17.0835C114.149 17.1615 114.465 17.1994 114.781 17.1961C115.103 17.1995 115.423 17.1616 115.735 17.0835C116.008 17.014 116.265 16.8927 116.492 16.7264C116.722 16.5883 116.933 16.419 117.117 16.2235C117.302 16.023 117.461 15.8004 117.592 15.5607C117.743 15.3019 117.865 15.0277 117.958 14.743C118.053 14.4501 118.132 14.1521 118.193 13.8505C118.243 13.537 118.285 13.2235 118.32 12.9103C118.354 12.6044 118.371 12.2969 118.372 11.9891" fill="#87888A"></path>
  <path d="M130.247 11.9891C130.258 12.7699 130.176 13.5492 130.003 14.3106C129.841 15.0184 129.585 15.7012 129.241 16.341C128.888 17.0197 128.348 17.5837 127.686 17.9668C126.952 18.3679 126.13 18.5779 125.294 18.5778C124.469 18.5763 123.657 18.3661 122.935 17.9668C122.276 17.5847 121.739 17.0243 121.384 16.3501C121.035 15.7063 120.772 15.0189 120.604 14.3061C120.425 13.547 120.34 12.7689 120.35 11.9891C120.34 11.2047 120.425 10.422 120.604 9.65811C120.773 8.94096 121.035 8.24903 121.384 7.59993C121.738 6.92745 122.276 6.36988 122.935 5.99276C123.659 5.59976 124.47 5.39605 125.294 5.40054C126.127 5.39405 126.948 5.59774 127.681 5.99276C128.34 6.3697 128.88 6.92319 129.241 7.59081C129.584 8.24219 129.84 8.93567 130.003 9.65355C130.175 10.4198 130.257 11.2037 130.247 11.9891M128.884 11.9891C128.883 11.6705 128.866 11.3521 128.833 11.0352C128.798 10.7001 128.756 10.3758 128.706 10.0622C128.645 9.76299 128.565 9.46806 128.466 9.17927C128.371 8.90201 128.25 8.63447 128.104 8.38028C127.577 7.33331 126.637 6.7944 125.285 6.76355C124.688 6.75123 124.099 6.90415 123.583 7.20541H123.593C123.37 7.35371 123.165 7.52706 122.982 7.72204C122.795 7.9237 122.634 8.14804 122.503 8.38981C122.356 8.63808 122.237 8.90102 122.145 9.17431C122.048 9.46681 121.976 9.76704 121.929 10.0718C121.654 11.3162 121.654 12.606 121.929 13.8505C121.977 14.1538 122.051 14.4524 122.15 14.7429C122.247 15.0253 122.368 15.2989 122.512 15.5607C122.755 16.0402 123.126 16.4436 123.583 16.7264C123.817 16.89 124.078 17.0109 124.354 17.0835C124.661 17.1615 124.977 17.1994 125.294 17.1961C125.616 17.1995 125.936 17.1616 126.248 17.0835C126.521 17.014 126.777 16.8927 127.004 16.7264C127.235 16.5883 127.445 16.419 127.63 16.2235C127.815 16.023 127.974 15.8004 128.104 15.5607C128.255 15.3019 128.378 15.0277 128.471 14.743C128.566 14.4501 128.644 14.1521 128.706 13.8505C128.756 13.537 128.798 13.2235 128.833 12.9103C128.867 12.6044 128.884 12.2969 128.884 11.9891" fill="#87888A"></path>
  <path d="M19.8336 3.54025C15.9789 -0.403744 10.0817 -1.10062 5.3578 1.69223C-0.155603 4.95225 -1.52232 12.2967 1.76305 17.5875C1.84029 17.712 2.25185 17.5925 2.20367 17.4338C1.67187 15.7434 1.53866 13.9528 1.81447 12.2023C2.09027 10.4518 2.7676 8.78892 3.7934 7.34392C4.55952 6.053 5.5797 4.93103 6.79215 4.04595C8.00461 3.16088 9.3841 2.53113 10.8471 2.19484C12.3101 1.85856 13.8261 1.82274 15.3033 2.08955C16.7805 2.35636 18.1882 2.92026 19.4411 3.74708C19.5462 3.81519 19.9686 3.67854 19.8336 3.54025" fill="#218455"></path>
  <path d="M20.3608 1.93324C18.6552 0.911636 16.3882 1.27542 14.5991 1.8153C14.5866 1.81905 14.5779 1.82404 14.5667 1.82817C14.5576 1.83068 14.5476 1.8315 14.5389 1.83441C10.2493 3.3282 5.38794 7.42671 5.75547 12.4135C5.76544 12.5493 6.18031 12.4218 6.2123 12.3189C7.21771 9.07209 9.81204 6.57953 12.7602 5.02591C15.722 3.46485 20.8936 2.98226 21.6262 7.24731C21.6499 7.38353 22.0569 7.26102 22.0826 7.15221C22.5693 5.09943 22.2907 3.08901 20.3608 1.93324" fill="#AECCBA"></path>
  <path d="M20.4943 7.78887C20.1716 7.40806 20.0761 7.29927 19.7347 6.93797C19.6235 6.82003 19.2086 6.92717 19.3228 7.11695C20.366 8.82089 20.8708 10.8 20.771 12.7955C20.6712 14.7909 19.9715 16.7098 18.7634 18.3011C17.2791 20.2954 14.9531 21.5063 12.5365 21.8971C9.98164 22.3099 7.48824 21.3377 5.22366 20.2622C5.08122 20.1944 4.71077 20.3087 4.88146 20.5001C8.29308 24.3216 14.3235 25.2635 18.5184 22.0761C19.5959 21.2751 20.5031 20.2675 21.187 19.1121C21.8709 17.9568 22.3179 16.6767 22.5018 15.3468C22.6858 14.0168 22.603 12.6635 22.2583 11.3659C21.9136 10.0683 21.314 8.85227 20.4943 7.78887" fill="#87888A"></path>
  <path d="M17.7006 11.7183C17.6749 11.5755 17.2608 11.6282 17.2355 11.7549C16.7313 14.3168 15.1711 16.4476 13.2317 18.1391C10.7254 20.3244 5.07286 22.4262 3.7647 17.9859C3.71861 17.8285 3.31453 17.9003 3.29542 18.0515C2.72565 22.5911 6.67299 23.6874 10.2781 22.3863C14.1005 21.0067 17.7683 16.9215 17.8281 12.7362C17.8232 12.3933 17.7804 12.0519 17.7006 11.7183" fill="#C7C7C8"></path>
</svg>
